<?xml version="1.0" encoding="UTF-8" standalone="no"?>
<svg
   inkscape:export-ydpi="576"
   inkscape:export-xdpi="576"
   inkscape:export-filename="/media/taufikramadhan/Data/Tr Design Studio/Project Design/TR Creative Design/Icon Design/Project Hiring/Icon Icons/007 - Design And Development/Send/1 - Line/SVG/30 - Server.png"
   width="64pt"
   height="64pt"
   viewBox="0 0 22.577778 22.577778"
   version="1.1"
   id="svg831"
   inkscape:version="1.1 (1:1.1+202106031931+af4d65493e)"
   sodipodi:docname="30 - Server.svg"
   xmlns:inkscape="http://www.inkscape.org/namespaces/inkscape"
   xmlns:sodipodi="http://sodipodi.sourceforge.net/DTD/sodipodi-0.dtd"
   xmlns="http://www.w3.org/2000/svg"
   xmlns:svg="http://www.w3.org/2000/svg"
   xmlns:rdf="http://www.w3.org/1999/02/22-rdf-syntax-ns#"
   xmlns:cc="http://creativecommons.org/ns#"
   xmlns:dc="http://purl.org/dc/elements/1.1/">
  <defs
     id="defs825">
    <pattern
       id="EMFhbasepattern"
       patternUnits="userSpaceOnUse"
       width="6"
       height="6"
       x="0"
       y="0" />
    <pattern
       id="EMFhbasepattern-9"
       patternUnits="userSpaceOnUse"
       width="6"
       height="6"
       x="0"
       y="0" />
    <pattern
       id="EMFhbasepattern-0"
       patternUnits="userSpaceOnUse"
       width="6"
       height="6"
       x="0"
       y="0" />
    <pattern
       id="EMFhbasepattern-7"
       patternUnits="userSpaceOnUse"
       width="6"
       height="6"
       x="0"
       y="0" />
    <pattern
       id="EMFhbasepattern-2"
       patternUnits="userSpaceOnUse"
       width="6"
       height="6"
       x="0"
       y="0" />
    <pattern
       id="EMFhbasepattern-98"
       patternUnits="userSpaceOnUse"
       width="6"
       height="6"
       x="0"
       y="0" />
    <pattern
       id="EMFhbasepattern-6"
       patternUnits="userSpaceOnUse"
       width="6"
       height="6"
       x="0"
       y="0" />
    <pattern
       id="EMFhbasepattern-01"
       patternUnits="userSpaceOnUse"
       width="6"
       height="6"
       x="0"
       y="0" />
    <pattern
       id="EMFhbasepattern-07"
       patternUnits="userSpaceOnUse"
       width="6"
       height="6"
       x="0"
       y="0" />
    <pattern
       id="EMFhbasepattern-8"
       patternUnits="userSpaceOnUse"
       width="6"
       height="6"
       x="0"
       y="0" />
    <pattern
       id="EMFhbasepattern-4"
       patternUnits="userSpaceOnUse"
       width="6"
       height="6"
       x="0"
       y="0" />
    <pattern
       id="EMFhbasepattern-40"
       patternUnits="userSpaceOnUse"
       width="6"
       height="6"
       x="0"
       y="0" />
    <pattern
       id="EMFhbasepattern-08"
       patternUnits="userSpaceOnUse"
       width="6"
       height="6"
       x="0"
       y="0" />
    <pattern
       id="EMFhbasepattern-04"
       patternUnits="userSpaceOnUse"
       width="6"
       height="6"
       x="0"
       y="0" />
    <pattern
       id="EMFhbasepattern-014"
       patternUnits="userSpaceOnUse"
       width="6"
       height="6"
       x="0"
       y="0" />
    <pattern
       id="EMFhbasepattern-27"
       patternUnits="userSpaceOnUse"
       width="6"
       height="6"
       x="0"
       y="0" />
    <pattern
       id="EMFhbasepattern-09"
       patternUnits="userSpaceOnUse"
       width="6"
       height="6"
       x="0"
       y="0" />
    <pattern
       id="EMFhbasepattern-5"
       patternUnits="userSpaceOnUse"
       width="6"
       height="6"
       x="0"
       y="0" />
    <pattern
       id="EMFhbasepattern-018"
       patternUnits="userSpaceOnUse"
       width="6"
       height="6"
       x="0"
       y="0" />
  </defs>
  <sodipodi:namedview
     id="base"
     pagecolor="#ffffff"
     bordercolor="#666666"
     borderopacity="1.0"
     inkscape:pageopacity="0.0"
     inkscape:pageshadow="2"
     inkscape:zoom="4.2757863"
     inkscape:cx="42.682208"
     inkscape:cy="42.56527"
     inkscape:document-units="pt"
     inkscape:current-layer="layer1"
     showgrid="false"
     units="pt"
     inkscape:window-width="1366"
     inkscape:window-height="705"
     inkscape:window-x="0"
     inkscape:window-y="31"
     inkscape:window-maximized="1"
     inkscape:pagecheckerboard="true"
     inkscape:showpageshadow="false"
     inkscape:object-paths="true"
     inkscape:snap-intersection-paths="true"
     inkscape:snap-smooth-nodes="true"
     inkscape:snap-midpoints="true"
     showguides="false"
     inkscape:snap-bbox="true"
     inkscape:bbox-nodes="true"
     inkscape:snap-nodes="false"
     inkscape:snap-global="true"
     inkscape:document-rotation="0">
    <inkscape:grid
       type="xygrid"
       id="grid1378" />
    <sodipodi:guide
       position="0.97013831,21.607643"
       orientation="78.000048,0"
       id="guide1380"
       inkscape:locked="false" />
    <sodipodi:guide
       position="0.97013831,0.97013129"
       orientation="0,78.000005"
       id="guide1382"
       inkscape:locked="false" />
    <sodipodi:guide
       position="21.607639,0.97013129"
       orientation="-78.000048,0"
       id="guide1384"
       inkscape:locked="false" />
    <sodipodi:guide
       position="21.607639,21.607643"
       orientation="0,-78.000005"
       id="guide1386"
       inkscape:locked="false" />
  </sodipodi:namedview>
  <metadata
     id="metadata828">
    <rdf:RDF>
      <cc:Work
         rdf:about="">
        <dc:format>image/svg+xml</dc:format>
        <dc:type
           rdf:resource="http://purl.org/dc/dcmitype/StillImage" />
      </cc:Work>
    </rdf:RDF>
  </metadata>
  <g
     inkscape:label="Icon"
     inkscape:groupmode="layer"
     id="layer1"
     transform="translate(0,-274.42223)">
    <path
       id="path160912"
       style="color:#000000;clip-rule:evenodd;fill:#000000;fill-rule:evenodd;stroke-width:0.999999;stroke-linecap:round;stroke-linejoin:round;stroke-miterlimit:1.5;-inkscape-stroke:none"
       d="m 7.3205384,275.39236 c -0.2814889,0 -0.5365485,0.12626 -0.7079863,0.30946 -0.1714311,0.1832 -0.2706677,0.41411 -0.3094562,0.65857 l -0.1183223,0.75415 h -0.14433 c -0.5304805,0 -0.938777,0.46288 -0.938777,0.99274 v 15.20768 c 0,0.52987 0.4083032,0.99274 0.938777,0.99274 h 0.4394858 v 1.38801 a 0.33289656,0.33289656 0 0 0 0.3341612,0.33417 h 1.3587567 a 0.33289656,0.33289656 0 0 0 0.3094602,-0.20869 l 0.604616,-1.51349 h 4.4039355 l 0.606562,1.51349 a 0.33289656,0.33289656 0 0 0 0.30686,0.20869 h 1.361357 a 0.33289656,0.33289656 0 0 0 0.334165,-0.33417 v -1.38801 h 0.440132 c 0.530602,0 0.936176,-0.46306 0.936176,-0.99274 v -15.20768 c 0,-0.52967 -0.405574,-0.99274 -0.936176,-0.99274 H 16.394306 L 16.274035,276.363 c -0.03875,-0.24456 -0.137995,-0.47798 -0.309455,-0.66118 -0.171462,-0.18321 -0.425855,-0.30946 -0.707335,-0.30946 z m 0,0.66573 h 7.9367046 c 0.09901,0 0.160763,0.031 0.223641,0.0981 0.0629,0.0672 0.116447,0.17887 0.137176,0.31012 l 0.102066,0.64816 H 6.8583015 l 0.1033677,-0.64816 c 0.020837,-0.13132 0.074954,-0.24294 0.1378253,-0.31012 0.062881,-0.0672 0.1220311,-0.0981 0.2210439,-0.0981 z m -1.2800948,1.72284 H 16.539935 c 0.137594,0 0.269802,0.12542 0.269802,0.32635 v 15.20768 c 0,0.20093 -0.132194,0.32637 -0.269802,0.32637 h -0.440132 v -4.4865 c 0,-0.56019 -0.461818,-1.022 -1.021997,-1.022 H 7.5019222 c -0.5601852,0 -1.0219928,0.46181 -1.0219928,1.022 v 4.4865 H 6.0404436 c -0.1371129,0 -0.2730508,-0.12568 -0.2730508,-0.32637 v -15.20768 c 0,-0.20071 0.1359479,-0.32635 0.2730508,-0.32635 z m 1.2306847,0.70992 c -0.4330016,0 -0.7911989,0.3608 -0.7911989,0.7938 v 1.83531 c 0,0.43298 0.3581973,0.79119 0.7911989,0.79119 H 15.306 c 0.433003,0 0.793803,-0.35821 0.793803,-0.79119 v -1.83531 c 0,-0.433 -0.3608,-0.7938 -0.793803,-0.7938 z m 0,0.66573 H 15.306 c 0.07574,0 0.128076,0.0523 0.128076,0.12807 v 1.83531 c 0,0.0757 -0.05239,0.12542 -0.128076,0.12542 H 7.2711283 c -0.07571,0 -0.1254731,-0.0497 -0.1254731,-0.12542 v -1.83531 c 0,-0.0757 0.049763,-0.12807 0.1254731,-0.12807 z m 0.9179733,0.70149 a 0.34434119,0.34434119 0 0 0 -0.3432653,0.34326 0.34434119,0.34434119 0 0 0 0.3432653,0.34521 0.34434119,0.34434119 0 0 0 0.3458647,-0.34521 0.34434119,0.34434119 0 0 0 -0.3458647,-0.34326 z m 1.3789123,0 a 0.34434119,0.34434119 0 0 0 -0.3432656,0.34326 0.34434119,0.34434119 0 0 0 0.3432656,0.34521 0.34434119,0.34434119 0 0 0 0.3452155,-0.34521 0.34434119,0.34434119 0 0 0 -0.3452155,-0.34326 z m 2.0647891,0.0113 a 0.33286327,0.33286327 0 0 0 -0.331562,0.33156 0.33286327,0.33286327 0 0 0 0.331562,0.33417 h 2.756526 a 0.33286327,0.33286327 0 0 0 0.332211,-0.33417 0.33286327,0.33286327 0 0 0 -0.332211,-0.33156 z m -4.1308808,2.75457 c -0.5601786,0 -1.0219928,0.46182 -1.0219928,1.022 v 2.75457 c 0,0.56018 0.4618142,1.02004 1.0219928,1.02004 h 7.5758838 c 0.560179,0 1.021997,-0.45986 1.021997,-1.02004 v -2.75457 c 0,-0.56018 -0.461818,-1.022 -1.021997,-1.022 z m 0,0.66573 h 7.5758838 c 0.202877,0 0.35627,0.1534 0.35627,0.35627 v 2.75457 c 0,0.20289 -0.153393,0.35626 -0.35627,0.35626 H 7.5019222 c -0.2028799,0 -0.3562666,-0.15337 -0.3562666,-0.35626 v -2.75457 c 0,-0.20287 0.1533867,-0.35627 0.3562666,-0.35627 z m 5.4155258,0.71058 a 0.33286327,0.33286327 0 0 0 -0.331561,0.33417 0.33286327,0.33286327 0 0 0 0.331561,0.33156 h 1.89706 a 0.33286327,0.33286327 0 0 0 0.334161,-0.33156 0.33286327,0.33286327 0 0 0 -0.334161,-0.33417 z m -4.7270456,0.34652 a 0.33286327,0.33286327 0 0 0 -0.3322135,0.33157 v 0.68782 a 0.33286327,0.33286327 0 0 0 0.3322135,0.33416 0.33286327,0.33286327 0 0 0 0.3341622,-0.33416 v -0.68782 a 0.33286327,0.33286327 0 0 0 -0.3341622,-0.33157 z m 1.3782594,0 a 0.33286327,0.33286327 0 0 0 -0.334161,0.33157 v 0.68782 a 0.33286327,0.33286327 0 0 0 0.334161,0.33416 0.33286327,0.33286327 0 0 0 0.3315655,-0.33416 v -0.68782 a 0.33286327,0.33286327 0 0 0 -0.3315655,-0.33157 z m 1.3763132,0 a 0.33286327,0.33286327 0 0 0 -0.332215,0.33157 v 0.68782 a 0.33286327,0.33286327 0 0 0 0.332215,0.33416 0.33286327,0.33286327 0 0 0 0.334161,-0.33416 v -0.68782 a 0.33286327,0.33286327 0 0 0 -0.334161,-0.33157 z m 1.972473,1.03174 a 0.33286327,0.33286327 0 0 0 -0.331561,0.33156 0.33286327,0.33286327 0 0 0 0.331561,0.33417 h 1.89706 a 0.33286327,0.33286327 0 0 0 0.334161,-0.33417 0.33286327,0.33286327 0 0 0 -0.334161,-0.33156 z m -5.4155258,3.4203 h 7.5758838 c 0.202877,0 0.35627,0.15339 0.35627,0.35627 v 1.73257 H 7.1456556 v -1.73257 c 0,-0.20288 0.15338,-0.35627 0.3562666,-0.35627 z m 0.6871794,0.70083 a 0.34434119,0.34434119 0 0 0 -0.3432653,0.34327 0.34434119,0.34434119 0 0 0 0.3432653,0.34586 0.34434119,0.34434119 0 0 0 0.3458647,-0.34586 0.34434119,0.34434119 0 0 0 -0.3458647,-0.34327 z m 1.3789123,0 a 0.34434119,0.34434119 0 0 0 -0.3432656,0.34327 0.34434119,0.34434119 0 0 0 0.3432656,0.34586 0.34434119,0.34434119 0 0 0 0.3452155,-0.34586 0.34434119,0.34434119 0 0 0 -0.3452155,-0.34327 z m 2.0647891,0.0113 a 0.33286327,0.33286327 0 0 0 -0.331562,0.33156 0.33286327,0.33286327 0 0 0 0.331562,0.33417 h 2.756526 a 0.33286327,0.33286327 0 0 0 0.332211,-0.33417 0.33286327,0.33286327 0 0 0 -0.332211,-0.33156 z m -4.4871474,2.04204 h 8.2884204 v 2.0882 H 7.1456556 Z m 1.043446,0.70083 a 0.34434119,0.34434119 0 0 0 -0.3432653,0.34327 0.34434119,0.34434119 0 0 0 0.3432653,0.34586 0.34434119,0.34434119 0 0 0 0.3458647,-0.34586 0.34434119,0.34434119 0 0 0 -0.3458647,-0.34327 z m 1.3789123,0 a 0.34434119,0.34434119 0 0 0 -0.3432656,0.34327 0.34434119,0.34434119 0 0 0 0.3432656,0.34586 0.34434119,0.34434119 0 0 0 0.3452155,-0.34586 0.34434119,0.34434119 0 0 0 -0.3452155,-0.34327 z m 2.0647891,0.0113 a 0.33286327,0.33286327 0 0 0 -0.331562,0.33158 0.33286327,0.33286327 0 0 0 0.331562,0.33415 h 2.756526 a 0.33286327,0.33286327 0 0 0 0.332211,-0.33415 0.33286327,0.33286327 0 0 0 -0.332211,-0.33158 z m -4.4871474,2.04204 h 1.22483 L 7.9472564,295.3636 H 7.1456556 Z m 7.0629384,0 h 1.225482 v 1.05645 h -0.803555 z" />
  </g>
</svg>
